<?xml version="1.0" encoding="UTF-8" standalone="no"?>
<!-- Created with Inkscape (http://www.inkscape.org/) -->

<svg
   xmlns:dc="http://purl.org/dc/elements/1.1/"
   xmlns:cc="http://creativecommons.org/ns#"
   xmlns:rdf="http://www.w3.org/1999/02/22-rdf-syntax-ns#"
   xmlns:svg="http://www.w3.org/2000/svg"
   xmlns="http://www.w3.org/2000/svg"
   xmlns:sodipodi="http://sodipodi.sourceforge.net/DTD/sodipodi-0.dtd"
   xmlns:inkscape="http://www.inkscape.org/namespaces/inkscape"
   width="1415.1302"
   height="1026.5713"
   viewBox="0 0 374.41988 271.61367"
   version="1.1"
   id="svg8"
   inkscape:version="0.92.3 (2405546, 2018-03-11)"
   sodipodi:docname="craedl-logo-new-vertical-wordmark.svg">
  <defs
     id="defs2" />
  <sodipodi:namedview
     id="base"
     pagecolor="#ffffff"
     bordercolor="#666666"
     borderopacity="1.0"
     inkscape:pageopacity="0.0"
     inkscape:pageshadow="2"
     inkscape:zoom="0.35"
     inkscape:cx="1210.7468"
     inkscape:cy="521.53516"
     inkscape:document-units="mm"
     inkscape:current-layer="text11434"
     showgrid="false"
     inkscape:pagecheckerboard="false"
     units="px"
     inkscape:window-width="2152"
     inkscape:window-height="732"
     inkscape:window-x="4320"
     inkscape:window-y="1550"
     inkscape:window-maximized="0"
     inkscape:showpageshadow="true"
     showborder="true"
     fit-margin-top="0"
     fit-margin-left="0"
     fit-margin-right="0"
     fit-margin-bottom="0" />
  <metadata
     id="metadata5">
    <rdf:RDF>
      <cc:Work
         rdf:about="">
        <dc:format>image/svg+xml</dc:format>
        <dc:type
           rdf:resource="http://purl.org/dc/dcmitype/StillImage" />
        <dc:title></dc:title>
      </cc:Work>
    </rdf:RDF>
  </metadata>
  <g
     inkscape:label="Layer 1"
     inkscape:groupmode="layer"
     id="layer1"
     transform="translate(102.54324,-127.66665)">
    <path
       style="opacity:1;fill:#3f51b5;fill-opacity:1;stroke-width:3.9792757"
       d="M 320,0 A 319.99999,319.99999 0 0 0 0,320 319.99999,319.99999 0 0 0 320,640 319.99999,319.99999 0 0 0 640,320 319.99999,319.99999 0 0 0 320,0 Z m 0,24 A 296,296 0 0 1 616,320 296,296 0 0 1 320,616 296,296 0 0 1 24,320 296,296 0 0 1 320,24 Z"
       id="path815"
       inkscape:connector-curvature="0"
       transform="matrix(0.26458333,0,0,0.26458333,0,127.66665)" />
    <path
       style="opacity:1;fill:#3f51b5;fill-opacity:1;stroke-width:4.55855894"
       d="M 332,48.425781 V 321.16797 A 63.999995,63.999995 0 0 1 384,384 63.999997,63.999997 0 0 1 436,321.18359 V 74.447266 A 272,272 0 0 0 332,48.425781 Z M 384,384 a 63.999995,63.999995 0 0 1 -64,64 63.999995,63.999995 0 0 1 -64,-64 63.999995,63.999995 0 0 1 52,-62.81641 V 48.609375 A 272,272 0 0 0 198.27344,76.851562 L 145.26562,320.01172 a 63.999993,63.999993 0 0 1 37.42383,72.46484 63.999993,63.999993 0 0 1 -76.16211,48.90039 A 63.999993,63.999993 0 0 1 61.878906,405.12305 272,272 0 0 0 320,592 272,272 0 0 0 592,320 272,272 0 0 0 460,87.283203 V 321.16797 A 63.999997,63.999997 0 0 1 512,384 63.999997,63.999997 0 0 1 448,448 63.999997,63.999997 0 0 1 384,384 Z M 170.15039,93.183594 A 272,272 0 0 0 48,320 a 272,272 0 0 0 8.755859,67.09375 63.999993,63.999993 0 0 1 0.871094,-21.87891 63.999993,63.999993 0 0 1 64.185547,-50.29882 z"
       id="path882"
       inkscape:connector-curvature="0"
       transform="matrix(0.26458333,0,0,0.26458333,0,127.66665)" />
    <g
       aria-label="Crædl"
       transform="scale(0.93467501,1.0698906)"
       style="font-style:normal;font-variant:normal;font-weight:500;font-stretch:normal;font-size:227.40176392px;line-height:1.25;font-family:Kinnari;-inkscape-font-specification:'Kinnari, Medium';font-variant-ligatures:normal;font-variant-caps:normal;font-variant-numeric:normal;font-feature-settings:normal;text-align:start;letter-spacing:0px;word-spacing:0px;writing-mode:lr-tb;text-anchor:start;fill:#3f51b5;fill-opacity:1;stroke:none;stroke-width:5.68504429"
       id="text11434">
      <path
         d="m -8.8114473,351.87844 q -7.5422377,9.55089 -19.6097677,15.52017 -11.9,5.79872 -23.96769,5.79872 -24.97313,0 -41.230892,-15.69073 -16.090253,-15.69072 -16.090253,-42.97889 0,-25.58273 15.922573,-42.29682 16.090082,-16.71393 41.231052,-16.71393 8.88305,0 18.60417,3.24032 9.72112,3.07009 11.39712,3.07009 4.52545,0 6.70433,-5.96945 h 3.6872 l 1.3408,38.20354 h -3.85488 q -3.85489,-14.49681 -13.24081,-22.85393 -9.21824,-8.52752 -23.12961,-8.52752 -19.77745,0 -29.66625,14.49696 -9.72096,14.32625 -9.72096,38.5445 0,9.20976 2.3464,17.908 2.51408,8.69809 7.20704,16.03169 4.69296,7.1632 12.40289,11.59761 7.87744,4.26368 17.76608,4.26368 12.06769,0 21.11841,-4.09312 9.05072,-4.09329 17.93377,-12.96193 z"
         style="font-style:normal;font-variant:normal;font-weight:500;font-stretch:normal;font-size:136.99104309px;line-height:125%;font-family:Kinnari;-inkscape-font-specification:'Kinnari, Medium';text-align:start;letter-spacing:0px;word-spacing:0px;writing-mode:lr-tb;text-anchor:start;display:inline;fill:#3f51b5;fill-opacity:1;stroke:none;stroke-width:0.64141434px;stroke-linecap:butt;stroke-linejoin:miter;stroke-opacity:1"
         id="path14"
         inkscape:connector-curvature="0" />
      <path
         d="m 52.199617,301.73634 q 0,7.50417 -6.871844,7.50417 -3.18448,0 -6.36896,-2.89937 -3.01696,-3.06992 -4.86048,-3.06992 -2.51425,0 -6.53681,4.94609 -3.85488,4.77536 -3.85488,8.35696 v 40.59121 q 0,5.62817 2.68176,8.18657 2.6816,2.55824 10.05633,3.06992 v 2.38768 H -2.9426473 v -2.38768 q 7.37472,-0.512 9.8888,-3.06992 2.68161,-2.5584 2.68161,-8.18657 v -37.18017 q 0,-9.38032 -1.5088,-12.96193 -1.34081,-3.5816 -5.19569,-3.5816 -2.34656003,0 -5.86624,1.024 v -2.55824 l 26.6492903,-9.20976 v 15.52017 q 3.35216,-5.96929 8.38032,-10.74481 5.02801,-4.77536 10.72673,-4.77536 9.385924,0 9.385924,9.0392 z"
         style="font-style:normal;font-variant:normal;font-weight:500;font-stretch:normal;font-size:136.99104309px;line-height:125%;font-family:Kinnari;-inkscape-font-specification:'Kinnari, Medium';text-align:start;letter-spacing:0px;word-spacing:0px;writing-mode:lr-tb;text-anchor:start;display:inline;fill:#3f51b5;fill-opacity:1;stroke:none;stroke-width:0.64141434px;stroke-linecap:butt;stroke-linejoin:miter;stroke-opacity:1"
         id="path16"
         inkscape:connector-curvature="0" />
      <path
         d="m 158.29134,345.39748 q -1.84368,4.09328 -2.84928,5.96928 -0.8384,1.876 -4.19008,6.65152 -3.18448,4.77537 -6.36912,7.33377 -3.0168,2.55824 -8.38017,4.94592 -5.36352,2.21712 -11.39728,2.21712 -13.40833,0 -21.62113,-12.45025 -8.380163,7.16321 -13.911203,9.89201 -5.36337,2.55824 -11.56481,2.55824 -8.54784,0 -14.07888,-5.11648 -5.36337,-5.28704 -5.36337,-13.64417 0,-7.67472 5.69857,-13.30288 5.86624,-5.79888 19.27472,-11.42705 l 14.24641,-6.13984 0.5024,-10.74464 q 0,-7.67489 -1.84368,-11.76817 -2.17888,-4.09312 -8.71552,-4.09312 -4.52529,0 -7.87745,2.21712 -3.352,2.04656 -3.352,6.13984 0,0.1696 0,0.6816 0.168,0.3408 0.168,2.04656 0,1.53441 0,4.26385 0,3.24048 -2.01136,5.28704 -1.84368,1.876 -5.02816,1.876 -3.352,0 -5.36336,-2.21712 -2.0112,-2.21712 -2.0112,-5.79872 0,-8.01585 7.54224,-13.13249 7.70976,-5.28704 19.27457,-5.28704 6.20144,0 10.39152,1.70544 4.357763,1.7056 9.218403,5.96928 5.53089,-4.43424 9.72113,-5.96928 4.35776,-1.70544 10.22384,-1.70544 12.73809,0 19.10705,7.3336 6.36912,7.33376 7.87744,23.87729 H 111.5294 q 0,12.45025 0.8384,18.24897 1.00641,5.62816 3.68737,10.7448 2.17888,3.75216 6.53648,6.13968 4.35776,2.38785 9.38592,2.38785 7.20721,0 12.73809,-3.75217 5.53104,-3.75216 11.39712,-12.79136 z m -56.81826,10.40368 -0.336,-1.024 q -0.336,-1.024 -0.8384,-2.7288 -0.502403,-1.87616 -1.006403,-4.09328 -0.5024,-2.21712 -0.8384,-5.28704 -0.336,-3.06992 -0.336,-6.13984 v -8.86865 q -15.25217,5.62816 -20.11265,9.89185 -4.86048,4.26384 -4.86048,11.93872 0,5.96928 3.18448,10.40352 3.352,4.43441 8.04496,4.43441 4.69297,0 10.89441,-3.06992 6.201443,-3.06993 6.201443,-5.45761 z m 10.05632,-37.52145 h 27.9901 q -0.336,-11.08577 -3.35201,-16.03169 -3.01696,-4.94608 -9.8888,-4.94608 -7.20704,0 -10.5592,4.94608 -3.35201,4.94592 -4.19009,16.03169 z"
         style="font-style:normal;font-variant:normal;font-weight:500;font-stretch:normal;font-size:136.99104309px;line-height:125%;font-family:Kinnari;-inkscape-font-specification:'Kinnari, Medium';text-align:start;letter-spacing:0px;word-spacing:0px;writing-mode:lr-tb;text-anchor:start;display:inline;fill:#3f51b5;fill-opacity:1;stroke:none;stroke-width:0.64141434px;stroke-linecap:butt;stroke-linejoin:miter;stroke-opacity:1"
         id="path18"
         inkscape:connector-curvature="0" />
      <path
         d="m 245.9517,363.13477 q -12.73809,3.75216 -25.30849,10.06256 v -12.6208 q -3.352,5.28704 -9.21825,8.69808 -5.86624,3.41104 -12.06768,3.41104 -14.74913,0 -22.96193,-11.08576 -8.21264,-11.08593 -8.21264,-26.60609 0,-16.03185 9.88864,-29.16418 10.05648,-13.13248 25.47617,-13.13248 5.69856,0 10.39152,2.21712 4.69297,2.21712 6.70417,4.60496 v -24.04785 q 0,-6.99264 -1.0064,-8.52752 -1.0064,-1.7056 -5.19569,-1.7056 h -4.86064 v -3.06992 q 2.01136,-0.512 7.20704,-1.70544 5.19585,-1.36481 7.54225,-2.21713 l 10.5592,-3.75216 v 100.79588 q 0,3.24048 1.84368,4.26368 1.84368,1.02401 5.36336,1.02401 h 3.85489 z m -25.30849,-12.27969 v -31.21089 q 0,-9.72144 -4.35761,-15.69073 -4.35792,-5.96928 -13.07328,-5.96928 -9.8888,0 -15.25217,9.55088 -5.36336,9.38033 -5.36336,22.17169 0,16.20241 6.36896,25.41217 6.36913,9.20977 16.76065,9.20977 6.70416,0 10.72672,-4.26385 4.19009,-4.26368 4.19009,-9.20976 z"
         style="font-style:normal;font-variant:normal;font-weight:500;font-stretch:normal;font-size:136.99104309px;line-height:125%;font-family:Kinnari;-inkscape-font-specification:'Kinnari, Medium';text-align:start;letter-spacing:0px;word-spacing:0px;writing-mode:lr-tb;text-anchor:start;display:inline;fill:#3f51b5;fill-opacity:1;stroke:none;stroke-width:0.64141434px;stroke-linecap:butt;stroke-linejoin:miter;stroke-opacity:1"
         id="path20"
         inkscape:connector-curvature="0" />
      <path
         d="M 290.87779,370.80965 H 250.6525 v -2.38768 q 7.70992,-0.512 10.224,-2.89952 2.6816,-2.55824 2.6816,-8.35697 v -81.69411 q 0,-7.50432 -1.1728,-9.20976 -1.1728,-1.876 -6.03376,-1.876 h -5.69856 v -2.21728 q 16.42528,-3.41105 27.31969,-7.67473 v 102.67188 q 0,5.79873 2.51408,8.35697 2.68176,2.38784 10.39152,2.89952 z"
         style="font-style:normal;font-variant:normal;font-weight:500;font-stretch:normal;font-size:136.99104309px;line-height:125%;font-family:Kinnari;-inkscape-font-specification:'Kinnari, Medium';text-align:start;letter-spacing:0px;word-spacing:0px;writing-mode:lr-tb;text-anchor:start;display:inline;fill:#3f51b5;fill-opacity:1;stroke:none;stroke-width:0.64141434px;stroke-linecap:butt;stroke-linejoin:miter;stroke-opacity:1"
         id="path22"
         inkscape:connector-curvature="0" />
    </g>
  </g>
</svg>
