<?xml version="1.0" encoding="UTF-8" standalone="no"?>
<!-- Created with Inkscape (http://www.inkscape.org/) -->

<svg
   xmlns:dc="http://purl.org/dc/elements/1.1/"
   xmlns:cc="http://creativecommons.org/ns#"
   xmlns:rdf="http://www.w3.org/1999/02/22-rdf-syntax-ns#"
   xmlns:svg="http://www.w3.org/2000/svg"
   xmlns="http://www.w3.org/2000/svg"
   xmlns:sodipodi="http://sodipodi.sourceforge.net/DTD/sodipodi-0.dtd"
   xmlns:inkscape="http://www.inkscape.org/namespaces/inkscape"
   width="90.445511"
   height="32.000008"
   viewBox="0 0 84.792668 30.000006"
   id="svg2"
   version="1.1"
   inkscape:version="0.92.3 (2405546, 2018-03-11)"
   sodipodi:docname="craedl-wordmark-white.svg"
   inkscape:export-filename="/home/asiera/documents/craedl/logos/newtons-cradle.png"
   inkscape:export-xdpi="90"
   inkscape:export-ydpi="90">
  <defs
     id="defs4" />
  <sodipodi:namedview
     id="base"
     pagecolor="#ffffff"
     bordercolor="#666666"
     borderopacity="1.0"
     inkscape:pageopacity="0.0"
     inkscape:pageshadow="2"
     inkscape:zoom="3.4796132"
     inkscape:cx="-31.509908"
     inkscape:cy="16.000004"
     inkscape:document-units="px"
     inkscape:current-layer="text3336"
     showgrid="false"
     units="pc"
     inkscape:snap-global="true"
     inkscape:snap-grids="true"
     inkscape:snap-to-guides="true"
     inkscape:snap-center="false"
     inkscape:snap-object-midpoints="true"
     showguides="true"
     inkscape:guide-bbox="true"
     inkscape:window-width="1920"
     inkscape:window-height="1080"
     inkscape:window-x="1920"
     inkscape:window-y="0"
     inkscape:window-maximized="0"
     showborder="true"
     fit-margin-top="1"
     fit-margin-left="1"
     fit-margin-right="1"
     fit-margin-bottom="1"
     viewbox-width="60"
     scale-x="1"
     inkscape:pagecheckerboard="false"
     borderlayer="false"
     inkscape:showpageshadow="true" />
  <metadata
     id="metadata7">
    <rdf:RDF>
      <cc:Work
         rdf:about="">
        <dc:format>image/svg+xml</dc:format>
        <dc:type
           rdf:resource="http://purl.org/dc/dcmitype/StillImage" />
        <dc:title></dc:title>
      </cc:Work>
    </rdf:RDF>
  </metadata>
  <g
     inkscape:groupmode="layer"
     id="layer2"
     inkscape:label="Layer 2"
     transform="translate(-177.44355,-432.11439)"
     style="display:inline">
    <g
       aria-label="Crædl"
       transform="scale(0.92656792,1.0792517)"
       style="font-style:normal;font-weight:normal;font-size:6.23648977px;line-height:0%;font-family:sans-serif;letter-spacing:0px;word-spacing:0px;fill:#ffffff;fill-opacity:1;stroke:none;stroke-width:0.51970744px;stroke-linecap:butt;stroke-linejoin:miter;stroke-opacity:1"
       id="text3336">
      <path
         d="m 215.05822,422.63145 q -1.6849,2.09676 -4.38073,3.40723 -2.65839,1.27304 -5.35423,1.27304 -5.57887,0 -9.21076,-3.44468 -3.59445,-3.44467 -3.59445,-9.43542 0,-5.61632 3.55701,-9.28564 3.59444,-3.66933 9.21076,-3.66933 1.98443,0 4.15608,0.7114 2.17164,0.67396 2.54606,0.67396 1.01094,0 1.49769,-1.31048 h 0.82372 l 0.29954,8.38704 h -0.86117 q -0.86117,-3.18258 -2.95793,-5.01725 -2.05931,-1.8721 -5.16701,-1.8721 -4.41817,0 -6.62726,3.18258 -2.17164,3.14514 -2.17164,8.46192 0,2.02187 0.52419,3.93142 0.56163,1.90955 1.61001,3.51956 1.04838,1.57257 2.77072,2.54607 1.75978,0.93605 3.96887,0.93605 2.69583,0 4.7177,-0.89861 2.02188,-0.89861 4.00631,-2.8456 z"
         style="font-style:normal;font-variant:normal;font-weight:500;font-stretch:normal;font-size:136.99104309px;line-height:125%;font-family:Kinnari;-inkscape-font-specification:'Kinnari, Medium';text-align:start;writing-mode:lr-tb;text-anchor:start;fill:#000000;fill-opacity:1;stroke-width:0.14204544px"
         id="path14"
         inkscape:connector-curvature="0" />
      <path
         d="m 228.68774,411.62346 q 0,1.64746 -1.53513,1.64746 -0.7114,0 -1.4228,-0.63652 -0.67396,-0.67396 -1.08582,-0.67396 -0.56164,0 -1.46025,1.08582 -0.86117,1.04838 -0.86117,1.83467 v 8.91123 q 0,1.23559 0.59908,1.79722 0.59907,0.56163 2.24653,0.67396 v 0.52419 h -8.79891 v -0.52419 q 1.64746,-0.11233 2.20909,-0.67396 0.59907,-0.56163 0.59907,-1.79722 v -8.16239 q 0,-2.05931 -0.33697,-2.8456 -0.29954,-0.78629 -1.16071,-0.78629 -0.52419,0 -1.31048,0.22466 v -0.56163 l 5.9533,-2.02188 v 3.40723 q 0.74885,-1.31047 1.87211,-2.35885 1.12326,-1.04838 2.3963,-1.04838 2.09676,0 2.09676,1.98443 z"
         style="font-style:normal;font-variant:normal;font-weight:500;font-stretch:normal;font-size:136.99104309px;line-height:125%;font-family:Kinnari;-inkscape-font-specification:'Kinnari, Medium';text-align:start;writing-mode:lr-tb;text-anchor:start;fill:#000000;fill-opacity:1;stroke-width:0.14204544px"
         id="path16"
         inkscape:connector-curvature="0" />
      <path
         d="m 252.38802,421.20865 q -0.41186,0.89861 -0.63652,1.31047 -0.18721,0.41187 -0.93605,1.46025 -0.7114,1.04838 -1.4228,1.61001 -0.67396,0.56163 -1.87211,1.08582 -1.19815,0.48675 -2.54606,0.48675 -2.99537,0 -4.83004,-2.73328 -1.8721,1.57257 -3.10769,2.17165 -1.19815,0.56163 -2.58351,0.56163 -1.90955,0 -3.14514,-1.12327 -1.19815,-1.1607 -1.19815,-2.99537 0,-1.68489 1.27303,-2.92048 1.31048,-1.27304 4.30585,-2.50862 l 3.18258,-1.34792 0.11233,-2.35885 q 0,-1.6849 -0.41187,-2.58351 -0.48674,-0.89861 -1.94699,-0.89861 -1.01093,0 -1.75978,0.48674 -0.74884,0.44931 -0.74884,1.34792 0,0.0374 0,0.14977 0.0374,0.0749 0.0374,0.44931 0,0.33697 0,0.93605 0,0.7114 -0.4493,1.16071 -0.41187,0.41186 -1.12327,0.41186 -0.74884,0 -1.19815,-0.48675 -0.4493,-0.48675 -0.4493,-1.27303 0,-1.75978 1.6849,-2.88305 1.72233,-1.1607 4.30584,-1.1607 1.38536,0 2.32141,0.37442 0.9735,0.37442 2.05932,1.31047 1.23559,-0.97349 2.17164,-1.31047 0.9735,-0.37442 2.28397,-0.37442 2.8456,0 4.2684,1.61001 1.42281,1.61001 1.75978,5.2419 h -9.84727 q 0,2.73327 0.18721,4.00631 0.22465,1.23558 0.82372,2.35885 0.48675,0.82373 1.46024,1.34791 0.9735,0.5242 2.09676,0.5242 1.61002,0 2.84561,-0.82373 1.23559,-0.82373 2.54606,-2.80816 z m -12.69288,2.28397 -0.0749,-0.22465 q -0.0749,-0.22466 -0.18721,-0.59908 -0.11233,-0.41186 -0.22465,-0.89861 -0.11233,-0.48675 -0.18721,-1.16071 -0.0749,-0.67395 -0.0749,-1.34791 v -1.94699 q -3.40723,1.23559 -4.49305,2.17164 -1.08582,0.93606 -1.08582,2.62095 0,1.31047 0.7114,2.28397 0.74884,0.9735 1.79722,0.9735 1.04838,0 2.43374,-0.67396 1.38536,-0.67396 1.38536,-1.19815 z m 2.24653,-8.23727 h 6.25283 q -0.0749,-2.43374 -0.74884,-3.51956 -0.67396,-1.08582 -2.20909,-1.08582 -1.61001,0 -2.35885,1.08582 -0.74884,1.08582 -0.93605,3.51956 z"
         style="font-style:normal;font-variant:normal;font-weight:500;font-stretch:normal;font-size:136.99104309px;line-height:125%;font-family:Kinnari;-inkscape-font-specification:'Kinnari, Medium';text-align:start;writing-mode:lr-tb;text-anchor:start;fill:#000000;fill-opacity:1;stroke-width:0.14204544px"
         id="path18"
         inkscape:connector-curvature="0" />
      <path
         d="m 271.97084,425.10263 q -2.84561,0.82373 -5.65377,2.20909 V 424.541 q -0.74884,1.1607 -2.05931,1.90955 -1.31048,0.74884 -2.69584,0.74884 -3.2949,0 -5.12957,-2.43374 -1.83466,-2.43374 -1.83466,-5.84097 0,-3.51956 2.20908,-6.4026 2.24653,-2.88305 5.69121,-2.88305 1.27303,0 2.32141,0.48675 1.04838,0.48675 1.49768,1.01094 v -5.27934 q 0,-1.53513 -0.22465,-1.87211 -0.22465,-0.37442 -1.1607,-0.37442 h -1.08582 v -0.67396 q 0.4493,-0.11233 1.61001,-0.37442 1.1607,-0.29954 1.68489,-0.48675 l 2.35886,-0.82373 v 22.1283 q 0,0.7114 0.41186,0.93606 0.41186,0.22465 1.19815,0.22465 h 0.86117 z m -5.65377,-2.69583 v -6.85191 q 0,-2.1342 -0.97349,-3.44468 -0.9735,-1.31047 -2.92049,-1.31047 -2.20908,0 -3.40723,2.09676 -1.19815,2.05932 -1.19815,4.86747 0,3.557 1.4228,5.57888 1.4228,2.02188 3.74422,2.02188 1.49768,0 2.39629,-0.93606 0.93605,-0.93605 0.93605,-2.02187 z"
         style="font-style:normal;font-variant:normal;font-weight:500;font-stretch:normal;font-size:136.99104309px;line-height:125%;font-family:Kinnari;-inkscape-font-specification:'Kinnari, Medium';text-align:start;writing-mode:lr-tb;text-anchor:start;fill:#000000;fill-opacity:1;stroke-width:0.14204544px"
         id="path20"
         inkscape:connector-curvature="0" />
      <path
         d="m 282.00708,426.78753 h -8.98611 v -0.52419 q 1.72234,-0.11233 2.28397,-0.63652 0.59908,-0.56163 0.59908,-1.83466 v -17.93478 q 0,-1.64746 -0.2621,-2.02188 -0.26209,-0.41186 -1.34792,-0.41186 h -1.27303 v -0.48675 q 3.66933,-0.74884 6.10307,-1.6849 v 22.54017 q 0,1.27303 0.56163,1.83466 0.59908,0.52419 2.32141,0.63652 z"
         style="font-style:normal;font-variant:normal;font-weight:500;font-stretch:normal;font-size:136.99104309px;line-height:125%;font-family:Kinnari;-inkscape-font-specification:'Kinnari, Medium';text-align:start;writing-mode:lr-tb;text-anchor:start;fill:#000000;fill-opacity:1;stroke-width:0.14204544px"
         id="path22"
         inkscape:connector-curvature="0" />
    </g>
  </g>
  <g
     inkscape:label="Layer 1"
     inkscape:groupmode="layer"
     id="layer1"
     transform="translate(33.911878,-1224.3826)"
     style="display:inline" />
</svg>
